<?xml version="1.0" standalone="no"?>
<!DOCTYPE svg PUBLIC "-//W3C//DTD SVG 20010904//EN"
 "http://www.w3.org/TR/2001/REC-SVG-20010904/DTD/svg10.dtd">
<svg version="1.0" xmlns="http://www.w3.org/2000/svg"
 width="1024.000000pt" height="1024.000000pt" viewBox="0 0 1024.000000 1024.000000"
 preserveAspectRatio="xMidYMid meet">
<metadata>
Created by potrace 1.11, written by Peter Selinger 2001-2013
</metadata>
<g transform="translate(0.000000,1024.000000) scale(0.100000,-0.100000)"
fill="#000000" stroke="none">
<path d="M0 5120 l0 -5120 4801 0 c4691 0 4801 0 4788 19 -8 10 -34 44 -59 76
-25 31 -58 76 -75 100 -16 24 -41 57 -55 74 -78 97 -94 118 -103 139 -6 12
-14 22 -18 22 -4 0 -23 24 -43 53 -47 68 -168 228 -262 346 -19 24 -40 53 -46
65 -6 12 -21 32 -34 46 -24 26 -54 67 -101 135 -15 22 -37 51 -49 65 -24 27
-56 70 -101 135 -15 22 -37 51 -49 65 -24 26 -54 67 -101 135 -15 22 -41 57
-58 77 -53 65 -79 99 -110 143 -58 83 -176 240 -251 334 -19 24 -40 53 -46 65
-6 12 -21 32 -34 46 -24 27 -56 69 -102 136 -28 41 -43 60 -122 157 -22 27
-40 52 -40 57 0 5 -18 30 -40 57 -80 97 -94 116 -122 157 -15 22 -46 64 -68
91 -22 28 -52 68 -68 90 -15 22 -29 42 -33 45 -3 3 -24 30 -46 60 -23 30 -61
80 -84 110 -24 30 -54 71 -68 91 -14 20 -53 72 -86 115 -33 44 -68 90 -78 104
-9 14 -35 48 -57 75 -22 28 -52 68 -67 90 -15 22 -37 51 -49 65 -24 27 -56 70
-101 135 -15 22 -37 51 -49 65 -25 27 -58 72 -102 136 -15 23 -41 57 -56 75
-74 91 -165 208 -181 234 -10 17 -29 41 -41 55 -25 27 -58 71 -102 136 -28 41
-42 60 -122 156 -21 26 -41 57 -45 68 -3 11 -10 20 -15 20 -4 0 -24 25 -44 55
-20 30 -41 57 -47 60 -5 4 -21 23 -35 43 -26 39 -74 104 -164 224 -30 40 -64
85 -75 100 -11 15 -47 62 -80 105 -33 43 -68 89 -78 103 -9 14 -35 48 -57 75
-22 28 -56 73 -75 100 -19 28 -53 73 -75 100 -22 28 -52 68 -67 90 -15 22 -37
51 -49 65 -25 27 -58 72 -102 136 -15 23 -41 57 -56 75 -71 88 -99 126 -109
147 -6 12 -13 22 -17 22 -4 0 -20 19 -36 43 -16 23 -42 58 -59 78 -16 20 -48
62 -70 94 -22 31 -54 73 -70 92 l-31 35 -67 -66 c-38 -36 -89 -78 -115 -93
-26 -15 -69 -46 -95 -69 -42 -37 -136 -84 -169 -84 -6 0 -39 -14 -73 -31 -34
-17 -82 -32 -106 -35 l-44 -3 45 9 c25 5 72 23 104 40 32 16 66 30 75 30 30 0
140 58 183 97 24 21 56 45 73 53 16 8 55 39 85 68 30 29 65 60 78 68 30 20 28
37 -11 81 -18 21 -41 49 -50 63 -30 42 -99 135 -162 216 -33 43 -67 88 -75
100 -15 22 -66 87 -140 179 -22 28 -56 73 -75 100 -19 28 -53 73 -75 100 -22
28 -56 73 -75 100 -19 28 -53 73 -75 100 -22 28 -52 68 -67 90 -15 22 -37 51
-49 65 -23 25 -51 63 -101 135 -15 22 -33 45 -40 50 -6 6 -24 29 -40 51 -45
66 -174 236 -259 343 -19 24 -40 53 -46 65 -6 12 -17 29 -26 39 -14 15 -17 16
-32 2 -10 -9 -44 -25 -76 -36 -32 -11 -84 -33 -115 -49 -30 -16 -75 -32 -100
-35 l-44 -5 51 13 c28 7 71 25 96 39 26 14 70 33 100 42 29 10 64 25 77 35 23
18 23 18 5 47 -10 16 -28 40 -40 54 -25 27 -58 71 -102 136 -26 39 -39 55
-117 152 -17 20 -43 55 -58 77 -15 22 -45 63 -67 90 -22 28 -52 68 -68 90 -15
22 -32 43 -39 48 -6 4 -22 24 -34 45 -12 20 -32 48 -45 62 -24 26 -55 68 -101
135 -15 22 -37 51 -49 65 -25 27 -58 72 -102 136 -28 41 -43 60 -122 157 -22
27 -40 52 -40 57 0 8 -20 34 -108 140 -16 19 -41 53 -55 75 -15 22 -45 63 -67
90 -22 28 -53 68 -68 90 -15 22 -34 45 -42 52 -12 10 -232 12 -957 13 l-943 0
0 -5120z m1145 3395 c39 -14 62 -25 53 -25 -10 0 -41 9 -69 19 l-50 20 46 -52
c77 -85 210 -218 276 -277 55 -49 143 -130 261 -242 47 -44 124 -93 158 -101
14 -4 50 -21 80 -39 62 -37 128 -62 212 -78 31 -6 79 -22 105 -36 26 -13 54
-24 61 -24 7 0 38 -9 70 -21 40 -14 82 -21 142 -21 l85 -1 -85 -6 c-69 -6 -92
-4 -120 10 -19 9 -51 20 -70 23 -19 4 -58 18 -85 32 -28 13 -82 31 -120 38
-86 18 -149 41 -187 67 -16 12 -55 31 -87 44 -82 32 -131 68 -241 177 -52 51
-111 105 -130 120 -32 23 -188 177 -343 338 -32 33 -53 60 -45 60 7 -1 45 -12
83 -25z m960 5 c32 -7 26 -8 -27 -3 -52 4 -78 1 -122 -16 -31 -12 -67 -21 -79
-20 -12 0 2 7 31 15 30 8 61 18 70 24 21 12 74 12 127 0z m160 -34 c38 -13 42
-15 15 -11 -19 3 -57 12 -85 20 -39 12 -42 14 -15 11 19 -3 58 -12 85 -20z
m-900 -20 c28 -8 41 -15 30 -15 -11 -1 -36 4 -55 10 -19 6 -55 15 -80 20 l-45
8 50 -4 c28 -2 73 -11 100 -19z m410 4 c-11 -5 -27 -9 -35 -9 -9 0 -8 4 5 9
11 5 27 9 35 9 9 0 8 -4 -5 -9z m58 3 c-7 -2 -19 -2 -25 0 -7 3 -2 5 12 5 14
0 19 -2 13 -5z m563 -13 c15 -6 43 -25 63 -42 51 -45 128 -77 202 -84 35 -4
87 -13 114 -20 32 -9 37 -12 15 -9 -19 3 -71 10 -115 15 -90 12 -169 44 -232
96 -24 20 -61 39 -85 43 -31 6 -35 9 -16 10 15 1 39 -4 54 -9z m-868 -7 c-10
-2 -26 -2 -35 0 -10 3 -2 5 17 5 19 0 27 -2 18 -5z m65 0 c-7 -2 -21 -2 -30 0
-10 3 -4 5 12 5 17 0 24 -2 18 -5z m120 0 c-7 -2 -21 -2 -30 0 -10 3 -4 5 12
5 17 0 24 -2 18 -5z m-250 -10 c-7 -2 -21 -2 -30 0 -10 3 -4 5 12 5 17 0 24
-2 18 -5z m184 1 c-3 -3 -12 -4 -19 -1 -8 3 -5 6 6 6 11 1 17 -2 13 -5z
m-1417 -69 c19 -19 32 -35 29 -35 -3 0 -20 16 -39 35 -19 19 -32 35 -29 35 3
0 20 -16 39 -35z m2648 -82 c-10 -2 -26 -2 -35 0 -10 3 -2 5 17 5 19 0 27 -2
18 -5z m-2027 -620 c13 -16 12 -17 -3 -4 -17 13 -22 21 -14 21 2 0 10 -8 17
-17z m1974 -62 c26 -12 60 -21 74 -21 43 0 122 -27 171 -58 25 -15 66 -36 93
-46 26 -10 70 -33 98 -53 28 -19 71 -43 95 -53 25 -11 68 -42 97 -69 29 -26
67 -56 85 -65 19 -10 58 -42 88 -72 30 -30 58 -54 63 -54 5 0 36 -24 69 -52
34 -29 82 -68 108 -86 l47 -34 41 23 c49 27 123 88 179 147 22 23 45 42 51 42
25 0 -96 -107 -217 -191 l-52 -36 -40 32 c-22 18 -51 38 -65 45 -25 13 -65 47
-201 168 -39 34 -75 62 -80 62 -5 0 -34 23 -65 51 -31 28 -82 63 -113 78 -31
15 -76 41 -100 59 -24 17 -68 41 -99 52 -30 12 -68 30 -84 41 -36 26 -129 59
-166 59 -16 0 -51 10 -78 22 -40 19 -67 23 -149 23 -61 0 -88 2 -70 7 52 12
170 1 220 -21z m-1834 -58 c13 -16 12 -17 -3 -4 -17 13 -22 21 -14 21 2 0 10
-8 17 -17z m254 -223 c10 -11 16 -20 13 -20 -3 0 -13 9 -23 20 -10 11 -16 20
-13 20 3 0 13 -9 23 -20z m-185 -254 c0 -2 -8 -10 -17 -17 -16 -13 -17 -12 -4
4 13 16 21 21 21 13z m-40 -40 c0 -2 -8 -10 -17 -17 -16 -13 -17 -12 -4 4 13
16 21 21 21 13z m1720 -183 c36 -14 72 -31 80 -38 9 -8 40 -25 70 -39 69 -32
232 -152 314 -232 23 -23 66 -57 96 -77 30 -19 66 -47 80 -62 13 -14 40 -36
59 -47 19 -12 54 -41 78 -65 24 -24 72 -57 106 -74 34 -16 56 -29 49 -29 -29
0 -107 46 -167 99 -73 64 -147 122 -210 167 -24 17 -69 53 -99 80 -113 103
-271 224 -291 224 -6 0 -36 15 -66 33 -120 72 -230 96 -314 66 -30 -10 -65
-19 -77 -18 -13 0 0 6 27 14 28 7 61 18 75 23 35 14 113 3 190 -25z m-435 1
l50 -14 -45 7 c-66 10 -178 4 -218 -13 -47 -19 -66 -17 -22 3 31 14 111 29
165 31 11 1 43 -6 70 -14z m103 -21 c-10 -2 -26 -2 -35 0 -10 3 -2 5 17 5 19
0 27 -2 18 -5z m-403 -22 c-61 -15 -112 -51 -205 -143 -52 -52 -109 -102 -127
-111 -28 -15 -32 -23 -36 -64 l-3 -48 -2 50 c-2 47 0 52 31 68 33 18 81 60
129 113 67 74 169 142 213 142 l30 0 -30 -7z m-358 -418 c-3 -10 -5 -4 -5 12
0 17 2 24 5 18 2 -7 2 -21 0 -30z m-10 -60 c-3 -10 -5 -4 -5 12 0 17 2 24 5
18 2 -7 2 -21 0 -30z m0 -60 c-3 -10 -5 -4 -5 12 0 17 2 24 5 18 2 -7 2 -21 0
-30z m10 -70 c-3 -10 -5 -2 -5 17 0 19 2 27 5 18 2 -10 2 -26 0 -35z m2076
-20 c-7 -2 -19 -2 -25 0 -7 3 -2 5 12 5 14 0 19 -2 13 -5z m140 0 c-7 -2 -21
-2 -30 0 -10 3 -4 5 12 5 17 0 24 -2 18 -5z m65 0 c-10 -2 -26 -2 -35 0 -10 3
-2 5 17 5 19 0 27 -2 18 -5z m-2291 -40 c-3 -10 -5 -4 -5 12 0 17 2 24 5 18 2
-7 2 -21 0 -30z m2161 30 c-10 -2 -28 -2 -40 0 -13 2 -5 4 17 4 22 1 32 -1 23
-4z m-2161 -90 c-3 -10 -5 -4 -5 12 0 17 2 24 5 18 2 -7 2 -21 0 -30z m1176
-20 c-23 -2 -64 -2 -90 0 -26 2 -7 3 42 3 50 0 71 -1 48 -3z m-1166 -50 c-3
-10 -5 -2 -5 17 0 19 2 27 5 18 2 -10 2 -26 0 -35z m1006 40 c-7 -2 -19 -2
-25 0 -7 3 -2 5 12 5 14 0 19 -2 13 -5z m244 1 c-3 -3 -12 -4 -19 -1 -8 3 -5
6 6 6 11 1 17 -2 13 -5z m-332 -24 c-27 -12 -43 -12 -25 0 8 5 22 9 30 9 10 0
8 -3 -5 -9z m-46 -14 c-10 -9 -69 -36 -69 -32 0 7 52 35 64 36 5 0 7 -2 5 -4z
m-889 -141 c-6 -101 -7 -104 -8 -35 -2 67 7 155 13 148 2 -2 -1 -52 -5 -113z
m1480 89 c0 -2 -9 0 -20 6 -11 6 -20 13 -20 16 0 2 9 0 20 -6 11 -6 20 -13 20
-16z m-695 -6 c-37 -27 -144 -133 -174 -173 -12 -16 -18 -21 -12 -9 23 47 185
205 209 204 4 0 -6 -10 -23 -22z m816 -96 c48 -52 97 -122 86 -122 -2 0 -21
25 -42 56 -21 30 -66 81 -99 111 -34 31 -47 47 -30 35 17 -12 56 -48 85 -80z
m-372 73 c375 -89 508 -558 236 -830 -193 -192 -502 -194 -694 -5 -196 194
-201 497 -11 694 125 131 295 182 469 141z m-1258 -400 c-11 -33 -22 -71 -24
-85 l-4 -25 -2 25 c0 14 8 51 19 83 13 37 21 87 22 144 l2 88 4 -85 c2 -65 -2
-99 -17 -145z m602 180 c-9 -19 -18 -33 -21 -31 -4 5 26 66 33 66 3 0 -3 -16
-12 -35z m1157 -60 c0 -5 -5 -3 -10 5 -5 8 -10 20 -10 25 0 6 5 3 10 -5 5 -8
10 -19 10 -25z m-1194 -31 c-8 -21 -15 -34 -15 -28 -1 15 20 76 25 71 2 -2 -2
-21 -10 -43z m1211 -36 c-3 -8 -6 -5 -6 6 -1 11 2 17 5 13 3 -3 4 -12 1 -19z
m-1230 -40 c-3 -7 -5 -2 -5 12 0 14 2 19 5 13 2 -7 2 -19 0 -25z m1240 -10
c-3 -7 -5 -2 -5 12 0 14 2 19 5 13 2 -7 2 -19 0 -25z m891 5 c-27 -2 -69 -2
-95 0 -27 2 -5 3 47 3 52 0 74 -1 48 -3z m-161 -9 c-3 -3 -12 -4 -19 -1 -8 3
-5 6 6 6 11 1 17 -2 13 -5z m250 0 c-3 -3 -12 -4 -19 -1 -8 3 -5 6 6 6 11 1
17 -2 13 -5z m-2230 -146 c-2 -29 -3 -8 -3 47 0 55 1 79 3 53 2 -26 2 -71 0
-100z m1940 136 c-3 -3 -12 -4 -19 -1 -8 3 -5 6 6 6 11 1 17 -2 13 -5z m330 0
c-3 -3 -12 -4 -19 -1 -8 3 -5 6 6 6 11 1 17 -2 13 -5z m-1010 -126 c-2 -24 -4
-7 -4 37 0 44 2 63 4 43 2 -21 2 -57 0 -80z m603 102 c-8 -5 -19 -10 -25 -10
-5 0 -3 5 5 10 8 5 20 10 25 10 6 0 3 -5 -5 -10z m510 -15 c28 -14 50 -28 50
-30 0 -5 -99 42 -109 51 -12 11 15 1 59 -21z m-584 -18 c-111 -71 -177 -137
-240 -242 -20 -32 -36 -54 -36 -48 0 23 102 163 148 204 46 41 130 100 141 98
4 0 -2 -6 -13 -12z m753 -107 c36 -37 75 -82 85 -101 23 -41 13 -32 -43 43
-23 31 -64 74 -89 94 -63 50 -71 59 -43 44 14 -7 54 -43 90 -80z m-3124 -8
c-9 -26 -23 -76 -30 -112 -12 -60 -65 -191 -65 -162 0 7 9 30 20 52 11 22 25
63 31 92 14 71 53 198 57 187 2 -5 -4 -31 -13 -57z m2820 27 c111 -41 187
-101 247 -193 106 -165 105 -383 -3 -545 -51 -77 -105 -123 -194 -167 -315
-154 -679 60 -702 412 -16 242 137 449 375 509 77 20 201 13 277 -16z m-988
-71 c-3 -7 -5 -2 -5 12 0 14 2 19 5 13 2 -7 2 -19 0 -25z m-1240 -10 c-3 -7
-5 -2 -5 12 0 14 2 19 5 13 2 -7 2 -19 0 -25z m1230 -30 c-3 -8 -6 -5 -6 6 -1
11 2 17 5 13 3 -3 4 -12 1 -19z m-1199 -63 c0 -5 -6 4 -13 20 -8 17 -14 37
-14 45 0 8 7 -1 14 -20 7 -19 13 -39 13 -45z m1173 -12 c-12 -20 -14 -14 -5
12 4 9 9 14 11 11 3 -2 0 -13 -6 -23z m-1018 -207 c44 -44 66 -70 50 -58 -70
50 -204 220 -203 258 0 5 17 -20 37 -56 21 -38 70 -98 116 -144z m1308 147
c-12 -20 -14 -14 -5 12 4 9 9 14 11 11 3 -2 0 -13 -6 -23z m1189 -8 c0 -5 -5
-3 -10 5 -5 8 -10 20 -10 25 0 6 5 3 10 -5 5 -8 10 -19 10 -25z m-1522 -17
c-27 -50 -159 -185 -206 -211 -49 -28 -38 -15 23 28 64 44 135 119 172 182 32
56 41 56 11 1z m1529 -20 c-3 -8 -6 -5 -6 6 -1 11 2 17 5 13 3 -3 4 -12 1 -19z
m-1220 -30 c-3 -8 -6 -5 -6 6 -1 11 2 17 5 13 3 -3 4 -12 1 -19z m1230 -10
c-3 -8 -6 -5 -6 6 -1 11 2 17 5 13 3 -3 4 -12 1 -19z m-3397 -45 c-7 -21 -19
-49 -27 -62 -9 -13 -19 -36 -23 -50 -5 -15 -9 -19 -9 -9 -1 9 10 38 24 63 13
26 28 63 31 83 4 21 9 31 11 25 3 -7 -1 -30 -7 -50z m2157 -5 c-3 -7 -5 -2 -5
12 0 14 2 19 5 13 2 -7 2 -19 0 -25z m1250 -5 c-3 -10 -5 -4 -5 12 0 17 2 24
5 18 2 -7 2 -21 0 -30z m-1260 -95 c-2 -13 -4 -5 -4 17 -1 22 1 32 4 23 2 -10
2 -28 0 -40z m1270 10 c-3 -8 -6 -5 -6 6 -1 11 2 17 5 13 3 -3 4 -12 1 -19z
m-2407 -24 c0 -2 -9 0 -20 6 -11 6 -20 13 -20 16 0 2 9 0 20 -6 11 -6 20 -13
20 -16z m-1108 -127 c-22 -45 -45 -99 -51 -119 -7 -20 -26 -56 -43 -79 -17
-23 -40 -63 -51 -88 -10 -25 -30 -60 -43 -77 -13 -18 -35 -58 -49 -90 -14 -32
-37 -73 -51 -92 -14 -18 -47 -74 -72 -125 -47 -92 -47 -92 -46 -192 0 -84 4
-110 27 -167 15 -36 27 -76 27 -88 0 -11 11 -43 25 -70 14 -27 25 -54 25 -59
0 -15 69 -113 115 -162 24 -25 50 -59 58 -75 8 -16 33 -46 55 -68 l40 -38 52
12 c70 17 168 7 236 -24 70 -32 153 -111 194 -184 17 -31 47 -82 66 -112 19
-30 34 -59 34 -65 -1 -5 -10 8 -22 30 -11 22 -32 56 -47 75 -14 19 -35 53 -46
75 -30 59 -117 142 -180 171 -70 32 -180 42 -246 21 l-46 -14 -44 51 c-25 28
-59 71 -76 96 -17 25 -41 54 -53 65 -27 24 -100 130 -100 145 0 6 -11 33 -25
60 -14 27 -25 60 -25 72 0 13 -12 50 -25 83 -17 40 -27 89 -32 148 -7 100 3
140 54 226 18 30 33 59 33 64 0 5 18 33 40 64 21 30 44 71 51 92 7 20 22 50
35 66 13 17 35 55 49 85 15 30 39 73 55 95 16 22 37 62 46 88 9 26 31 77 50
113 19 36 34 73 35 82 0 12 2 13 6 4 3 -8 -13 -50 -35 -95z m1658 93 c-8 -5
-19 -10 -25 -10 -5 0 -3 5 5 10 8 5 20 10 25 10 6 0 3 -5 -5 -10z m597 -37
c-3 -10 -5 -4 -5 12 0 17 2 24 5 18 2 -7 2 -21 0 -30z m1250 0 c-3 -10 -5 -4
-5 12 0 17 2 24 5 18 2 -7 2 -21 0 -30z m-1920 11 c-3 -3 -12 -4 -19 -1 -8 3
-5 6 6 6 11 1 17 -2 13 -5z m-280 -10 c-3 -3 -12 -4 -19 -1 -8 3 -5 6 6 6 11
1 17 -2 13 -5z m240 0 c-3 -3 -12 -4 -19 -1 -8 3 -5 6 6 6 11 1 17 -2 13 -5z
m-94 -11 c-24 -2 -62 -2 -85 0 -24 2 -5 4 42 4 47 0 66 -2 43 -4z m2044 -35
c-3 -8 -6 -5 -6 6 -1 11 2 17 5 13 3 -3 4 -12 1 -19z m-1218 -38 c0 -9 -4 -8
-9 5 -5 11 -9 27 -9 35 0 9 4 8 9 -5 5 -11 9 -27 9 -35z m1196 -35 c-22 -60
-29 -53 -7 7 9 26 18 45 21 43 2 -3 -4 -25 -14 -50z m-1175 -20 c0 -5 -5 -3
-10 5 -5 8 -10 20 -10 25 0 6 5 3 10 -5 5 -8 10 -19 10 -25z m1130 -75 c-6
-11 -13 -20 -16 -20 -2 0 0 9 6 20 6 11 13 20 16 20 2 0 0 -9 -6 -20z m-1031
-84 c44 -54 122 -118 190 -156 31 -18 47 -29 36 -25 -77 24 -239 162 -278 236
-17 33 -17 33 0 10 10 -14 33 -43 52 -65z m989 22 c-52 -75 -186 -182 -253
-203 -11 -4 7 8 40 26 36 20 94 68 145 120 47 48 86 87 88 88 2 1 -7 -14 -20
-31z m-703 -218 c13 -6 15 -9 5 -9 -8 0 -22 4 -30 9 -18 12 -2 12 25 0z m415
0 c-8 -5 -22 -9 -30 -9 -10 0 -8 3 5 9 27 12 43 12 25 0z m-327 -27 c-7 -2
-19 -2 -25 0 -7 3 -2 5 12 5 14 0 19 -2 13 -5z m234 1 c-3 -3 -12 -4 -19 -1
-8 3 -5 6 6 6 11 1 17 -2 13 -5z m-84 -11 c-24 -2 -62 -2 -85 0 -24 2 -5 4 42
4 47 0 66 -2 43 -4z m1521 -85 c-51 -4 -116 -5 -145 0 -40 5 -17 7 91 8 142 0
143 0 54 -8z m301 2 c27 -5 11 -6 -50 -3 -49 3 -92 7 -94 9 -8 7 104 3 144 -6z
m269 -1 c-40 -4 -107 -4 -150 0 -66 6 -54 7 71 7 118 0 135 -1 79 -7z m-819
-14 c-27 -8 -75 -14 -105 -13 -53 1 -52 1 17 8 40 3 76 9 79 13 4 4 19 7 33 6
18 0 10 -5 -24 -14z m388 8 c-7 -2 -21 -2 -30 0 -10 3 -4 5 12 5 17 0 24 -2
18 -5z m-607 -44 c-32 -11 -66 -18 -75 -16 -11 3 -10 5 5 6 12 0 37 8 55 16
19 8 43 14 54 14 11 0 -6 -9 -39 -20z m-141 -33 c-27 -7 -60 -18 -72 -24 -12
-7 -32 -12 -45 -11 -19 1 -18 2 7 9 17 5 48 15 70 24 22 8 51 15 65 15 14 -1
3 -6 -25 -13z m-195 -52 c-30 -8 -65 -21 -77 -29 -12 -8 -31 -15 -41 -15 -38
0 -122 -31 -169 -63 -27 -17 -66 -38 -88 -46 -22 -7 -61 -28 -86 -46 -25 -18
-68 -42 -95 -54 -27 -12 -65 -35 -84 -50 -19 -15 -57 -37 -83 -49 -26 -12 -73
-45 -105 -75 -31 -29 -80 -70 -109 -92 -29 -21 -54 -44 -57 -51 -3 -7 -24 -25
-48 -40 -24 -15 -63 -45 -88 -68 -99 -89 -224 -160 -270 -153 -23 4 -23 4 5 6
43 2 255 128 255 151 0 4 30 31 68 59 91 69 167 132 228 190 28 27 81 63 116
80 36 17 71 38 79 47 7 9 43 31 79 48 36 18 84 46 108 63 24 18 66 39 93 48
27 9 51 21 55 26 10 17 102 59 161 73 32 8 81 24 108 35 28 11 61 20 75 20 14
0 0 -7 -30 -15z m1297 -616 c-6 -4 -146 -6 -312 -6 -165 1 -287 4 -270 7 41 8
595 7 582 -1z m193 -21 c30 -8 46 -16 35 -16 -11 -1 -36 4 -55 10 -19 7 -62
15 -95 19 l-60 8 60 -3 c33 -1 85 -10 115 -18z m-832 6 c-16 -2 -40 -2 -55 0
-16 2 -3 4 27 4 30 0 43 -2 28 -4z m-103 -13 c-11 -5 -36 -9 -55 -9 -19 -1
-59 -10 -88 -21 -29 -11 -60 -20 -70 -19 -27 0 97 40 153 49 69 10 84 10 60 0z
m1074 -19 c10 -6 -1 -8 -30 -4 -24 3 -46 7 -48 9 -10 9 65 3 78 -5z m166 -48
c28 -12 44 -23 37 -23 -7 0 -30 9 -52 20 -22 11 -52 20 -67 21 -15 0 -37 4
-48 9 -13 6 -2 7 30 3 28 -4 73 -17 100 -30z m-1490 10 c-11 -2 -38 -11 -60
-20 -22 -8 -60 -19 -85 -23 -54 -10 -143 -47 -185 -77 -17 -12 -56 -33 -87
-46 -30 -14 -59 -30 -63 -37 -4 -7 -33 -24 -65 -39 -32 -15 -72 -39 -89 -52
-16 -13 -41 -32 -54 -41 -18 -12 -26 -29 -29 -61 -5 -40 -32 -107 -73 -177 -8
-14 -25 -50 -38 -81 -14 -31 -40 -74 -59 -95 -20 -22 -43 -56 -53 -78 -18 -37
-100 -136 -205 -243 l-51 -53 40 -57 c21 -32 53 -71 71 -88 17 -16 38 -43 46
-58 8 -15 37 -52 64 -82 27 -30 57 -69 66 -87 9 -18 36 -54 59 -80 23 -26 54
-71 67 -100 33 -68 123 -159 190 -190 65 -30 166 -55 278 -67 l85 -9 -90 4
c-104 6 -197 26 -273 61 -68 31 -163 126 -201 200 -16 32 -46 78 -67 103 -22
25 -57 71 -78 104 -22 32 -46 60 -53 63 -6 3 -24 24 -38 48 -13 24 -43 63 -64
87 -22 24 -58 67 -79 96 l-40 53 62 64 c149 155 176 185 197 226 12 24 37 61
56 83 20 21 46 64 60 95 13 31 33 72 44 91 42 73 62 127 67 173 4 45 8 50 60
85 31 20 83 51 115 68 32 18 68 41 80 52 12 11 33 23 47 27 14 4 47 21 75 38
64 41 149 77 205 87 25 5 61 15 80 24 19 8 46 15 60 14 20 0 21 -1 5 -5z
m1578 -40 c-7 -2 -19 -2 -25 0 -7 3 -2 5 12 5 14 0 19 -2 13 -5z m182 -104
c50 -56 108 -120 130 -143 22 -23 51 -57 64 -76 13 -19 43 -55 67 -80 154
-161 211 -232 242 -302 11 -26 32 -62 45 -80 14 -18 32 -51 41 -72 16 -38 15
-42 -5 -95 -12 -31 -36 -87 -55 -126 -18 -38 -35 -79 -37 -90 -4 -19 -5 -19
-6 1 0 12 13 48 29 80 17 32 41 90 54 127 23 63 23 71 10 103 -8 20 -28 53
-43 74 -16 22 -34 54 -41 72 -18 44 -74 122 -130 179 -25 25 -76 83 -115 128
-127 149 -185 215 -238 271 -29 30 -61 68 -72 84 -16 22 -32 31 -65 36 l-45 7
40 2 c39 1 43 -2 130 -100z m-3535 -8 c-25 -9 -54 -22 -65 -28 -38 -21 -316
-97 -395 -109 -25 -3 -61 -13 -80 -21 -19 -8 -62 -19 -95 -24 -76 -13 -151
-47 -201 -91 -22 -20 -54 -43 -71 -52 -18 -9 -55 -35 -82 -59 -61 -52 -134
-98 -184 -113 -21 -7 -49 -19 -62 -28 -13 -9 -30 -16 -37 -16 -16 0 67 44 102
55 36 11 103 53 163 103 29 24 66 51 82 59 17 8 51 33 77 54 58 48 138 86 198
95 25 3 68 14 95 24 28 10 70 21 95 24 99 15 351 87 424 122 28 13 57 24 65
24 9 -1 -4 -9 -29 -19z m-3010 -246 c19 -19 32 -35 29 -35 -3 0 -20 16 -39 35
-19 19 -32 35 -29 35 3 0 20 -16 39 -35z m116 -147 l29 -33 -32 29 c-31 28
-38 36 -30 36 2 0 16 -15 33 -32z m1331 -104 c15 -3 51 -12 80 -20 28 -8 71
-15 95 -15 23 -1 57 -5 73 -9 18 -5 0 -6 -45 -3 -41 3 -97 11 -124 19 -27 8
-59 14 -70 14 -30 1 -54 22 -61 56 l-6 29 15 -32 c10 -22 24 -34 43 -39z
m-1236 -21 c13 -16 12 -17 -3 -4 -10 7 -18 15 -18 17 0 8 8 3 21 -13z m40 -40
c13 -16 12 -17 -3 -4 -10 7 -18 15 -18 17 0 8 8 3 21 -13z m6761 -565 c-11
-18 -25 -50 -32 -71 -14 -45 -44 -67 -108 -78 -26 -5 -74 -22 -107 -39 -33
-16 -73 -32 -90 -36 -16 -4 -55 -19 -85 -34 -30 -15 -75 -33 -100 -40 -25 -6
-59 -20 -76 -31 -17 -10 -42 -18 -55 -18 l-24 1 25 7 c14 3 39 13 55 22 17 9
50 22 75 29 25 7 70 25 100 40 30 15 69 31 85 34 17 4 57 21 90 37 33 16 82
33 108 38 46 8 97 43 97 65 0 16 52 117 58 112 2 -3 -5 -20 -16 -38z m-6011 5
c13 -16 12 -17 -3 -4 -10 7 -18 15 -18 17 0 8 8 3 21 -13z m5289 -372 c-25
-10 -58 -26 -75 -35 -16 -9 -39 -16 -50 -16 -11 0 -44 -11 -73 -25 -30 -14
-65 -25 -79 -25 -13 0 -52 -11 -86 -24 -34 -13 -83 -27 -110 -30 -26 -3 -65
-15 -87 -26 -21 -11 -47 -20 -57 -20 -28 1 96 50 142 56 22 3 63 14 90 25 28
10 70 23 95 28 58 12 158 47 240 82 36 16 72 29 80 28 8 0 -5 -8 -30 -18z
m-647 -208 c-7 -2 -19 -2 -25 0 -7 3 -2 5 12 5 14 0 19 -2 13 -5z m-83 -24
c-71 -33 -176 -57 -280 -63 l-95 -5 110 14 c126 15 207 34 250 58 17 9 37 16
45 16 8 0 -5 -9 -30 -20z m-952 -56 c-10 -2 -26 -2 -35 0 -10 3 -2 5 17 5 19
0 27 -2 18 -5z m185 0 c-7 -2 -21 -2 -30 0 -10 3 -4 5 12 5 17 0 24 -2 18 -5z
m190 0 c-7 -2 -21 -2 -30 0 -10 3 -4 5 12 5 17 0 24 -2 18 -5z m185 0 c-10 -2
-26 -2 -35 0 -10 3 -2 5 17 5 19 0 27 -2 18 -5z m-495 -10 c-7 -2 -21 -2 -30
0 -10 3 -4 5 12 5 17 0 24 -2 18 -5z m60 0 c-7 -2 -21 -2 -30 0 -10 3 -4 5 12
5 17 0 24 -2 18 -5z m170 0 c-18 -2 -48 -2 -65 0 -18 2 -4 4 32 4 36 0 50 -2
33 -4z m185 0 c-15 -2 -42 -2 -60 0 -18 2 -6 4 27 4 33 0 48 -2 33 -4z m2332
-26 c0 -2 -17 -19 -37 -38 l-38 -34 34 38 c33 34 41 42 41 34z m-3930 -292
c19 -19 32 -35 29 -35 -3 0 -20 16 -39 35 -19 19 -32 35 -29 35 3 0 20 -16 39
-35z m131 -132 c13 -16 12 -17 -3 -4 -10 7 -18 15 -18 17 0 8 8 3 21 -13z
m174 -113 c10 -11 16 -20 13 -20 -3 0 -13 9 -23 20 -10 11 -16 20 -13 20 3 0
13 -9 23 -20z"/>
<path d="M2526 10228 c13 -21 114 -154 180 -237 19 -24 40 -53 46 -65 6 -12
21 -32 34 -46 24 -26 54 -67 101 -135 15 -22 37 -51 49 -65 24 -27 56 -70 101
-135 15 -22 37 -51 49 -65 24 -27 56 -70 101 -135 15 -22 37 -51 49 -65 24
-27 56 -70 101 -135 15 -22 37 -51 49 -65 24 -27 56 -70 101 -135 15 -22 37
-51 49 -65 26 -29 59 -73 109 -147 19 -28 40 -55 45 -58 6 -4 22 -23 36 -43
33 -50 99 -138 154 -207 90 -114 111 -141 138 -181 27 -41 55 -76 118 -152 17
-20 39 -52 48 -69 9 -18 20 -33 24 -33 5 0 21 -20 36 -45 16 -25 36 -50 44
-57 8 -7 26 -29 39 -48 25 -37 74 -104 163 -222 30 -40 64 -85 75 -100 11 -14
45 -59 75 -100 30 -40 65 -86 78 -103 12 -16 34 -48 49 -70 15 -22 37 -51 49
-65 24 -27 56 -70 101 -135 15 -22 37 -51 49 -65 24 -27 56 -70 101 -135 15
-22 37 -51 49 -65 24 -26 54 -67 101 -135 15 -22 41 -57 58 -77 16 -21 47 -59
68 -85 21 -27 54 -68 74 -93 20 -25 40 -55 46 -67 6 -13 13 -23 17 -23 4 0 20
-19 36 -42 15 -24 38 -54 50 -68 24 -27 56 -70 101 -135 15 -22 37 -51 49 -65
26 -29 59 -73 109 -147 19 -28 40 -55 45 -58 6 -4 22 -23 36 -43 33 -49 99
-138 156 -211 26 -33 59 -77 73 -98 14 -21 46 -63 71 -93 24 -30 60 -77 79
-105 19 -27 53 -72 75 -100 22 -27 52 -68 67 -90 15 -22 37 -51 49 -65 24 -27
56 -70 101 -135 15 -22 37 -51 49 -65 23 -25 51 -63 101 -135 15 -22 33 -44
40 -50 6 -5 24 -29 40 -51 46 -67 167 -228 263 -349 22 -27 40 -53 40 -57 0
-4 18 -28 40 -53 22 -25 40 -52 40 -59 0 -7 10 -21 21 -32 12 -10 32 -35 46
-54 27 -41 89 -123 153 -205 25 -31 59 -76 75 -100 17 -23 50 -68 75 -100 25
-31 57 -75 72 -98 15 -22 36 -50 47 -61 20 -21 47 -58 98 -131 15 -22 38 -51
50 -65 22 -25 50 -63 100 -135 15 -22 36 -47 45 -57 10 -9 29 -34 43 -55 13
-21 43 -60 65 -88 22 -27 52 -68 67 -90 15 -22 37 -51 49 -65 24 -27 56 -70
101 -135 15 -22 37 -51 49 -65 13 -14 33 -39 46 -57 13 -18 50 -67 83 -109 33
-43 67 -88 75 -100 8 -12 42 -58 75 -101 33 -43 68 -89 78 -103 9 -14 35 -47
57 -75 22 -27 52 -68 67 -90 15 -22 37 -51 49 -65 24 -27 56 -70 101 -135 15
-22 37 -51 49 -65 24 -27 56 -70 101 -135 15 -22 37 -51 49 -65 25 -27 58 -72
102 -136 28 -41 43 -60 122 -157 22 -27 40 -52 40 -57 0 -5 18 -30 40 -57 84
-102 96 -117 112 -144 9 -15 26 -38 37 -51 11 -13 30 -37 43 -55 13 -18 50
-67 82 -110 33 -43 71 -93 85 -112 14 -19 44 -57 65 -85 22 -28 51 -67 65 -87
14 -20 53 -71 86 -114 33 -43 67 -88 75 -100 46 -66 93 -125 101 -125 5 0 9
2067 9 5120 l0 5120 -3861 0 c-3085 0 -3859 -3 -3853 -12z m4484 -805 c0 -5
-24 -9 -53 -9 -42 -1 -46 0 -22 6 41 10 75 12 75 3z m-160 -23 c-30 -4 -73
-10 -95 -14 l-40 -6 45 14 c25 7 68 13 95 13 l50 0 -55 -7z m265 -139 c25 -23
72 -55 103 -69 54 -25 67 -27 226 -29 93 -1 171 -5 174 -8 3 -2 -73 -3 -169
-2 -165 2 -177 4 -231 29 -32 15 -73 39 -93 55 -37 28 -115 136 -115 157 0 6
13 -12 29 -39 16 -28 50 -70 76 -94z m-450 109 c-27 -4 -68 -11 -90 -14 l-40
-6 45 14 c25 7 65 13 90 13 l45 0 -50 -7z m-165 -30 c-79 -17 -165 -43 -185
-55 -11 -7 -31 -16 -45 -19 -14 -4 2 7 35 23 33 17 69 31 80 31 11 1 36 8 55
15 19 7 49 13 65 13 29 0 29 0 -5 -8z m-290 -102 c-19 -12 -56 -33 -81 -47
-82 -46 -140 -85 -196 -134 -31 -27 -81 -61 -112 -76 -31 -15 -75 -41 -99 -58
-24 -18 -65 -40 -90 -50 -26 -9 -64 -29 -85 -45 -21 -15 -62 -35 -90 -44 -29
-9 -74 -29 -102 -44 -27 -16 -68 -33 -90 -40 -22 -7 -62 -25 -90 -41 -27 -15
-66 -30 -85 -34 -19 -4 -63 -20 -96 -36 -34 -16 -86 -33 -115 -38 -58 -10
-149 -40 -240 -77 -30 -13 -80 -28 -110 -35 -30 -6 -78 -19 -107 -30 -29 -10
-63 -18 -75 -18 -20 1 -20 2 -2 6 11 2 45 12 75 23 30 10 81 24 112 30 32 6
78 22 103 36 25 13 55 24 66 24 11 0 48 11 82 24 34 13 81 27 105 30 24 4 66
18 94 32 28 14 76 32 107 40 31 8 74 25 96 38 22 13 58 29 80 36 22 7 60 24
85 38 25 15 68 34 96 43 28 9 71 30 96 47 25 17 57 34 72 38 14 3 54 25 89 47
34 22 87 53 117 67 30 15 75 45 100 68 60 54 131 104 206 141 34 17 67 38 74
46 7 8 20 15 29 15 9 0 1 -9 -19 -22z m1453 -75 c-7 -2 -19 -2 -25 0 -7 3 -2
5 12 5 14 0 19 -2 13 -5z m450 -2 l67 -1 -1 -32 c-2 -31 -2 -31 -6 -5 -5 31
18 29 -318 30 -109 0 -152 3 -110 6 39 3 122 5 185 4 63 -1 145 -2 183 -2z
m56 -146 c-6 -39 -15 -90 -21 -115 -25 -106 -39 -339 -25 -435 6 -42 5 -39 -8
15 -10 40 -14 88 -11 125 18 201 25 263 35 288 6 16 11 44 11 62 0 36 20 139
25 133 2 -2 -1 -35 -6 -73z m-4141 -600 c1 -1 -28 -2 -65 -2 -57 0 -61 1 -28
7 34 6 83 3 93 -5z m197 -15 c17 -4 -17 -5 -75 -2 -58 3 -107 6 -109 8 -8 7
153 2 184 -6z m78 -17 c-7 -2 -21 -2 -30 0 -10 3 -4 5 12 5 17 0 24 -2 18 -5z
m3824 -50 c-3 -10 -5 -2 -5 17 0 19 2 27 5 18 2 -10 2 -26 0 -35z m56 -130
c39 -62 122 -130 188 -154 65 -24 66 -26 43 -104 -13 -44 -14 -46 -8 -10 13
85 14 84 -50 110 -32 13 -78 41 -103 62 -50 42 -109 132 -118 178 -5 27 -4 26
9 -6 8 -20 25 -54 39 -76z m-2090 -310 c-13 -2 -35 -2 -50 0 -16 2 -5 4 22 4
28 0 40 -2 28 -4z m206 3 c-2 -2 -44 -6 -94 -9 -56 -3 -73 -2 -45 2 49 9 146
13 139 7z m-296 -13 c-7 -2 -19 -2 -25 0 -7 3 -2 5 12 5 14 0 19 -2 13 -5z
m392 -14 c105 -39 214 -166 230 -269 4 -22 -2 -13 -15 25 -39 116 -131 207
-245 244 -33 11 -52 20 -43 20 10 1 42 -8 73 -20z m2002 -26 c-3 -10 -5 -2 -5
17 0 19 2 27 5 18 2 -10 2 -26 0 -35z m-2462 23 c-16 -7 -53 -15 -80 -19 -97
-11 -164 -44 -235 -116 -36 -36 -86 -82 -110 -102 -25 -20 -56 -56 -70 -79
-14 -24 -46 -66 -72 -95 -43 -47 -98 -143 -98 -172 0 -7 -8 -28 -17 -48 -20
-42 -34 -42 -124 5 -31 16 -80 35 -110 41 -30 6 -60 16 -66 21 -7 6 -38 18
-70 28 -32 11 -50 19 -40 19 10 1 52 -12 94 -29 41 -16 83 -30 92 -30 10 0 49
-15 87 -34 99 -49 111 -51 124 -26 6 12 18 45 27 73 19 65 44 107 105 175 27
29 48 57 48 63 0 21 236 243 286 271 27 14 78 32 114 38 36 6 76 15 90 20 40
13 58 10 25 -4z m2459 -95 c-4 -17 -9 -30 -11 -27 -3 2 -2 19 2 36 4 17 9 30
11 27 2 -2 1 -18 -2 -36z m-24 -125 c-7 -22 -23 -54 -36 -71 -41 -54 -67 -127
-75 -210 l-8 -80 3 81 c3 83 11 105 92 254 13 24 25 60 25 80 1 27 3 29 6 10
3 -13 0 -42 -7 -64z m-1739 -207 c-24 -109 -93 -207 -185 -259 -28 -17 -55
-30 -61 -29 -5 0 11 11 36 24 114 60 194 181 207 317 5 53 8 63 10 35 2 -21
-1 -61 -7 -88z m-1821 -85 c-35 -7 -98 -9 -94 -2 3 5 29 7 57 7 29 -1 45 -3
37 -5z m3456 -166 c-1 -51 2 -111 6 -133 6 -32 5 -30 -7 10 -16 53 -19 116 -9
178 4 20 8 37 9 37 1 0 1 -42 1 -92z m-1911 -48 c-11 -5 -31 -8 -45 -8 -23 0
-22 1 5 8 42 11 65 11 40 0z m-212 -7 c-7 -2 -21 -2 -30 0 -10 3 -4 5 12 5 17
0 24 -2 18 -5z m70 0 c-7 -2 -21 -2 -30 0 -10 3 -4 5 12 5 17 0 24 -2 18 -5z
m-133 -11 c-40 -18 -140 -152 -140 -187 0 -24 -73 -171 -78 -157 -2 6 8 28 21
49 14 21 30 56 37 78 30 99 120 226 159 224 14 0 14 -1 1 -7z m183 1 c-7 -2
-19 -2 -25 0 -7 3 -2 5 12 5 14 0 19 -2 13 -5z m2004 -165 c-2 -13 -4 -5 -4
17 -1 22 1 32 4 23 2 -10 2 -28 0 -40z m10 -60 c-3 -7 -5 -2 -5 12 0 14 2 19
5 13 2 -7 2 -19 0 -25z m88 -206 c17 -52 72 -135 106 -160 10 -7 39 -40 64
-73 55 -72 55 -71 -32 -202 -29 -44 -53 -83 -53 -88 0 -5 -18 -32 -40 -61 -22
-29 -49 -75 -60 -103 -10 -27 -19 -43 -19 -35 -1 24 44 113 75 151 16 19 38
52 48 74 10 21 30 55 46 75 15 19 37 54 49 78 22 42 22 44 4 69 -10 14 -25 35
-33 48 -8 12 -32 36 -52 54 -49 42 -93 111 -113 175 -9 28 -30 76 -46 107 -16
31 -29 62 -29 69 0 19 66 -118 85 -178z m-2530 -3 c-15 -28 -47 -73 -72 -100
-47 -50 -150 -110 -187 -108 -12 0 -2 6 21 14 100 31 199 121 239 219 11 25
20 42 22 37 2 -5 -9 -33 -23 -62z m-335 -219 c-30 -4 -66 -11 -80 -14 -20 -6
-19 -4 5 8 17 8 53 14 80 14 l50 -1 -55 -7z m2805 -583 c-14 -25 -32 -74 -39
-109 -7 -36 -19 -76 -27 -89 -7 -13 -18 -42 -25 -64 -7 -22 -13 -31 -13 -20
-1 11 10 43 22 70 13 28 27 70 31 95 7 45 68 185 74 169 2 -4 -8 -28 -23 -52z
m-108 -389 c-2 -18 -4 -6 -4 27 0 33 2 48 4 33 2 -15 2 -42 0 -60z m13 -148
c-7 -63 -7 -63 -7 25 0 50 3 79 7 65 3 -14 3 -54 0 -90z m1926 48 l29 -33 -32
29 c-31 28 -38 36 -30 36 2 0 16 -15 33 -32z m-1879 -233 c28 -55 122 -141
179 -166 26 -11 68 -22 93 -26 25 -3 71 -14 101 -24 30 -11 82 -23 115 -29 78
-12 176 -38 148 -39 -12 -1 -42 5 -65 13 -24 8 -67 17 -96 20 -30 4 -77 15
-105 25 -29 11 -74 22 -102 25 -63 8 -140 45 -198 97 -48 42 -118 163 -116
203 0 13 5 5 13 -19 7 -22 22 -58 33 -80z m917 -295 c71 -5 131 -12 134 -15
10 -10 -235 9 -278 22 -25 7 -31 10 -15 8 17 -3 88 -10 159 -15z m-211 3 c-7
-2 -21 -2 -30 0 -10 3 -4 5 12 5 17 0 24 -2 18 -5z m425 -20 c-10 -2 -28 -2
-40 0 -13 2 -5 4 17 4 22 1 32 -1 23 -4z m61 -15 c0 -16 -2 -18 -6 -8 -3 8
-11 18 -17 22 -7 5 -4 8 7 8 11 0 17 -7 16 -22z m-19 -158 l-11 -25 6 25 c2
14 6 50 7 80 l2 55 3 -55 c2 -31 -1 -67 -7 -80z m-29 -160 c-12 -33 -21 -69
-21 -79 0 -10 -11 -43 -25 -73 -14 -29 -25 -59 -25 -67 0 -8 -13 -35 -29 -60
-16 -25 -34 -63 -41 -84 -6 -21 -29 -66 -49 -99 -31 -51 -48 -67 -98 -94 -33
-17 -76 -34 -94 -38 l-34 -5 35 12 c19 7 61 26 93 42 50 26 62 38 94 95 19 36
42 83 50 105 7 22 24 56 37 75 12 19 26 48 30 64 4 16 16 48 27 70 10 22 19
48 19 58 0 10 9 44 20 75 11 32 21 75 22 98 l1 40 4 -38 c3 -22 -4 -63 -16
-97z m-2153 -496 c20 -9 51 -20 67 -24 22 -6 24 -8 9 -9 -19 -1 -139 47 -121
48 4 1 24 -6 45 -15z m226 -68 c28 -13 80 -33 116 -45 90 -31 142 -53 110 -47
-14 2 -52 16 -85 30 -33 14 -70 26 -83 26 -12 0 -34 7 -47 16 -14 9 -51 25
-82 35 -46 16 -50 18 -19 14 21 -4 61 -17 90 -29z m1461 -62 c-27 -13 -60 -24
-73 -24 -13 0 -52 -12 -88 -26 -35 -14 -74 -23 -87 -21 -21 4 -20 4 3 6 14 0
52 12 85 26 33 13 70 25 81 25 12 0 41 9 65 20 62 28 74 23 14 -6z m-1147 -50
c20 -9 53 -20 72 -24 28 -6 30 -8 10 -9 -14 0 -52 10 -85 24 -33 13 -54 25
-47 25 7 0 29 -7 50 -16z m869 -30 c-3 -3 -12 -4 -19 -1 -8 3 -5 6 6 6 11 1
17 -2 13 -5z m-685 -24 c29 -11 65 -20 80 -20 16 0 56 -10 90 -22 56 -19 69
-20 118 -10 78 17 108 13 35 -3 -80 -18 -110 -18 -146 1 -17 8 -53 18 -80 21
-47 6 -188 51 -162 52 7 1 36 -8 65 -19z m618 0 c-19 -11 -51 -19 -70 -18 -35
0 -35 0 7 9 24 4 51 13 60 18 10 6 23 10 28 10 6 0 -6 -8 -25 -19z m-140 -35
c-19 -7 -42 -13 -50 -13 -8 0 1 6 20 13 19 7 42 13 50 13 8 0 -1 -6 -20 -13z
m1270 -278 c0 -2 -10 -12 -22 -23 l-23 -19 19 23 c18 21 26 27 26 19z m-180
-121 c0 -2 -8 -10 -17 -17 -16 -13 -17 -12 -4 4 13 16 21 21 21 13z"/>
</g>
</svg>
